<svg width="80" height="80" viewBox="0 0 80 80" fill="none" xmlns="http://www.w3.org/2000/svg">
<g clip-path="url(#clip0_7550_2577)">
<rect width="80" height="80" rx="40" fill="#174EA0"/>
<path d="M18.6641 30.4004H23.0826V49.4732H18.6641V30.4004Z" fill="white"/>
<path d="M43.3964 30.4004V49.4732H39.7726L30.3315 37.9024V49.4732H25.9766V30.4004H29.6004L39.0415 41.9713V30.4004H43.3964Z" fill="white"/>
<path d="M52.0748 34.1828H46.7344V30.6543H61.2933V34.2146H55.9529V49.4728H52.0748V34.1828Z" fill="white"/>
<path d="M60.2443 49.599C61.3328 49.599 62.2152 48.7166 62.2152 47.6281C62.2152 46.5396 61.3328 45.6572 60.2443 45.6572C59.1558 45.6572 58.2734 46.5396 58.2734 47.6281C58.2734 48.7166 59.1558 49.599 60.2443 49.599Z" fill="white"/>
</g>
<defs>
<clipPath id="clip0_7550_2577">
<rect width="80" height="80" fill="white"/>
</clipPath>
</defs>
</svg>
